solid ascii
  facet normal -7.071068e-001 -7.071068e-001 0.000000e+000
    outer loop
      vertex   -3.000000e+000 -5.000000e+000 -1.500000e+000
      vertex   -3.000000e+000 -5.000000e+000 1.500000e+000
      vertex   -5.000000e+000 -3.000000e+000 -1.500000e+000
    endloop
  endfacet
  facet normal -7.071068e-001 -7.071068e-001 0.000000e+000
    outer loop
      vertex   -5.000000e+000 -3.000000e+000 -1.500000e+000
      vertex   -3.000000e+000 -5.000000e+000 1.500000e+000
      vertex   -5.000000e+000 -3.000000e+000 1.500000e+000
    endloop
  endfacet
  facet normal -1.480297e-016 -1.000000e+000 0.000000e+000
    outer loop
      vertex   -3.000000e+000 -5.000000e+000 -1.500000e+000
      vertex   3.000000e+000 -5.000000e+000 -1.500000e+000
      vertex   -3.000000e+000 -5.000000e+000 1.500000e+000
    endloop
  endfacet
  facet normal -1.480297e-016 -1.000000e+000 0.000000e+000
    outer loop
      vertex   -3.000000e+000 -5.000000e+000 1.500000e+000
      vertex   3.000000e+000 -5.000000e+000 -1.500000e+000
      vertex   3.000000e+000 -5.000000e+000 1.500000e+000
    endloop
  endfacet
  facet normal 0.000000e+000 -0.000000e+000 -1.000000e+000
    outer loop
      vertex   1.490896e+000 1.650123e-001 -1.500000e+000
      vertex   5.000000e+000 3.000000e+000 -1.500000e+000
      vertex   1.500000e+000 1.836970e-016 -1.500000e+000
    endloop
  endfacet
  facet normal 0.000000e+000 0.000000e+000 -1.000000e+000
    outer loop
      vertex   1.490896e+000 1.650123e-001 -1.500000e+000
      vertex   1.463695e+000 3.280216e-001 -1.500000e+000
      vertex   5.000000e+000 3.000000e+000 -1.500000e+000
    endloop
  endfacet
  facet normal -0.000000e+000 0.000000e+000 -1.000000e+000
    outer loop
      vertex   5.000000e+000 3.000000e+000 -1.500000e+000
      vertex   1.463695e+000 3.280216e-001 -1.500000e+000
      vertex   1.418726e+000 4.870492e-001 -1.500000e+000
    endloop
  endfacet
  facet normal 0.000000e+000 -0.000000e+000 -1.000000e+000
    outer loop
      vertex   1.356536e+000 6.401647e-001 -1.500000e+000
      vertex   5.000000e+000 3.000000e+000 -1.500000e+000
      vertex   1.418726e+000 4.870492e-001 -1.500000e+000
    endloop
  endfacet
  facet normal 0.000000e+000 0.000000e+000 -1.000000e+000
    outer loop
      vertex   1.356536e+000 6.401647e-001 -1.500000e+000
      vertex   1.277879e+000 7.855094e-001 -1.500000e+000
      vertex   5.000000e+000 3.000000e+000 -1.500000e+000
    endloop
  endfacet
  facet normal -0.000000e+000 0.000000e+000 -1.000000e+000
    outer loop
      vertex   5.000000e+000 3.000000e+000 -1.500000e+000
      vertex   1.277879e+000 7.855094e-001 -1.500000e+000
      vertex   1.183711e+000 9.213191e-001 -1.500000e+000
    endloop
  endfacet
  facet normal 0.000000e+000 -0.000000e+000 -1.000000e+000
    outer loop
      vertex   1.075174e+000 1.045945e+000 -1.500000e+000
      vertex   5.000000e+000 3.000000e+000 -1.500000e+000
      vertex   1.183711e+000 9.213191e-001 -1.500000e+000
    endloop
  endfacet
  facet normal 0.000000e+000 0.000000e+000 -1.000000e+000
    outer loop
      vertex   1.075174e+000 1.045945e+000 -1.500000e+000
      vertex   3.000000e+000 5.000000e+000 -1.500000e+000
      vertex   5.000000e+000 3.000000e+000 -1.500000e+000
    endloop
  endfacet
  facet normal 0.000000e+000 0.000000e+000 -1.000000e+000
    outer loop
      vertex   1.075174e+000 1.045945e+000 -1.500000e+000
      vertex   9.535856e-001 1.157875e+000 -1.500000e+000
      vertex   3.000000e+000 5.000000e+000 -1.500000e+000
    endloop
  endfacet
  facet normal -0.000000e+000 0.000000e+000 -1.000000e+000
    outer loop
      vertex   3.000000e+000 5.000000e+000 -1.500000e+000
      vertex   9.535856e-001 1.157875e+000 -1.500000e+000
      vertex   8.204222e-001 1.255750e+000 -1.500000e+000
    endloop
  endfacet
  facet normal 0.000000e+000 -0.000000e+000 -1.000000e+000
    outer loop
      vertex   6.773000e-001 1.338381e+000 -1.500000e+000
      vertex   3.000000e+000 5.000000e+000 -1.500000e+000
      vertex   8.204222e-001 1.255750e+000 -1.500000e+000
    endloop
  endfacet
  facet normal 0.000000e+000 0.000000e+000 -1.000000e+000
    outer loop
      vertex   6.773000e-001 1.338381e+000 -1.500000e+000
      vertex   5.259563e-001 1.404767e+000 -1.500000e+000
      vertex   3.000000e+000 5.000000e+000 -1.500000e+000
    endloop
  endfacet
  facet normal -0.000000e+000 0.000000e+000 -1.000000e+000
    outer loop
      vertex   3.000000e+000 5.000000e+000 -1.500000e+000
      vertex   5.259563e-001 1.404767e+000 -1.500000e+000
      vertex   3.682282e-001 1.454100e+000 -1.500000e+000
    endloop
  endfacet
  facet normal 0.000000e+000 -0.000000e+000 -1.000000e+000
    outer loop
      vertex   2.060303e-001 1.485783e+000 -1.500000e+000
      vertex   3.000000e+000 5.000000e+000 -1.500000e+000
      vertex   3.682282e-001 1.454100e+000 -1.500000e+000
    endloop
  endfacet
  facet normal 0.000000e+000 0.000000e+000 -1.000000e+000
    outer loop
      vertex   2.060303e-001 1.485783e+000 -1.500000e+000
      vertex   4.133151e-002 1.499430e+000 -1.500000e+000
      vertex   3.000000e+000 5.000000e+000 -1.500000e+000
    endloop
  endfacet
  facet normal -0.000000e+000 0.000000e+000 -1.000000e+000
    outer loop
      vertex   3.000000e+000 5.000000e+000 -1.500000e+000
      vertex   4.133151e-002 1.499430e+000 -1.500000e+000
      vertex   -3.000000e+000 5.000000e+000 -1.500000e+000
    endloop
  endfacet
  facet normal 0.000000e+000 -0.000000e+000 -1.000000e+000
    outer loop
      vertex   -3.000000e+000 5.000000e+000 -1.500000e+000
      vertex   4.133151e-002 1.499430e+000 -1.500000e+000
      vertex   -1.238690e-001 1.494877e+000 -1.500000e+000
    endloop
  endfacet
  facet normal 0.000000e+000 0.000000e+000 -1.000000e+000
    outer loop
      vertex   -2.875659e-001 1.472177e+000 -1.500000e+000
      vertex   -3.000000e+000 5.000000e+000 -1.500000e+000
      vertex   -1.238690e-001 1.494877e+000 -1.500000e+000
    endloop
  endfacet
  facet normal -0.000000e+000 0.000000e+000 -1.000000e+000
    outer loop
      vertex   -2.875659e-001 1.472177e+000 -1.500000e+000
      vertex   -4.477722e-001 1.431608e+000 -1.500000e+000
      vertex   -3.000000e+000 5.000000e+000 -1.500000e+000
    endloop
  endfacet
  facet normal 0.000000e+000 -0.000000e+000 -1.000000e+000
    outer loop
      vertex   -3.000000e+000 5.000000e+000 -1.500000e+000
      vertex   -4.477722e-001 1.431608e+000 -1.500000e+000
      vertex   -6.025431e-001 1.373660e+000 -1.500000e+000
    endloop
  endfacet
  facet normal 0.000000e+000 0.000000e+000 -1.000000e+000
    outer loop
      vertex   -7.500000e-001 1.299038e+000 -1.500000e+000
      vertex   -3.000000e+000 5.000000e+000 -1.500000e+000
      vertex   -6.025431e-001 1.373660e+000 -1.500000e+000
    endloop
  endfacet
  facet normal -0.000000e+000 0.000000e+000 -1.000000e+000
    outer loop
      vertex   -7.500000e-001 1.299038e+000 -1.500000e+000
      vertex   -8.883529e-001 1.208648e+000 -1.500000e+000
      vertex   -3.000000e+000 5.000000e+000 -1.500000e+000
    endloop
  endfacet
  facet normal 0.000000e+000 -0.000000e+000 -1.000000e+000
    outer loop
      vertex   -3.000000e+000 5.000000e+000 -1.500000e+000
      vertex   -8.883529e-001 1.208648e+000 -1.500000e+000
      vertex   -1.015922e+000 1.103586e+000 -1.500000e+000
    endloop
  endfacet
  facet normal 0.000000e+000 -0.000000e+000 -1.000000e+000
    outer loop
      vertex   -5.000000e+000 3.000000e+000 -1.500000e+000
      vertex   -1.015922e+000 1.103586e+000 -1.500000e+000
      vertex   -1.131160e+000 9.851280e-001 -1.500000e+000
    endloop
  endfacet
  facet normal 0.000000e+000 0.000000e+000 -1.000000e+000
    outer loop
      vertex   -1.232667e+000 8.547121e-001 -1.500000e+000
      vertex   -5.000000e+000 3.000000e+000 -1.500000e+000
      vertex   -1.131160e+000 9.851280e-001 -1.500000e+000
    endloop
  endfacet
  facet normal -0.000000e+000 0.000000e+000 -1.000000e+000
    outer loop
      vertex   -1.232667e+000 8.547121e-001 -1.500000e+000
      vertex   -1.319211e+000 7.139211e-001 -1.500000e+000
      vertex   -5.000000e+000 3.000000e+000 -1.500000e+000
    endloop
  endfacet
  facet normal 0.000000e+000 -0.000000e+000 -1.000000e+000
    outer loop
      vertex   -5.000000e+000 3.000000e+000 -1.500000e+000
      vertex   -1.319211e+000 7.139211e-001 -1.500000e+000
      vertex   -1.389741e+000 5.644641e-001 -1.500000e+000
    endloop
  endfacet
  facet normal 0.000000e+000 0.000000e+000 -1.000000e+000
    outer loop
      vertex   -1.443402e+000 4.081552e-001 -1.500000e+000
      vertex   -5.000000e+000 3.000000e+000 -1.500000e+000
      vertex   -1.389741e+000 5.644641e-001 -1.500000e+000
    endloop
  endfacet
  facet normal -0.000000e+000 0.000000e+000 -1.000000e+000
    outer loop
      vertex   -1.443402e+000 4.081552e-001 -1.500000e+000
      vertex   -1.479542e+000 2.468919e-001 -1.500000e+000
      vertex   -5.000000e+000 3.000000e+000 -1.500000e+000
    endloop
  endfacet
  facet normal 0.000000e+000 -0.000000e+000 -1.000000e+000
    outer loop
      vertex   -5.000000e+000 3.000000e+000 -1.500000e+000
      vertex   -1.479542e+000 2.468919e-001 -1.500000e+000
      vertex   -1.497722e+000 8.263164e-002 -1.500000e+000
    endloop
  endfacet
  facet normal 0.000000e+000 0.000000e+000 -1.000000e+000
    outer loop
      vertex   -5.000000e+000 -3.000000e+000 -1.500000e+000
      vertex   -1.497722e+000 8.263164e-002 -1.500000e+000
      vertex   -1.497722e+000 -8.263164e-002 -1.500000e+000
    endloop
  endfacet
  facet normal -0.000000e+000 0.000000e+000 -1.000000e+000
    outer loop
      vertex   -1.479542e+000 -2.468919e-001 -1.500000e+000
      vertex   -5.000000e+000 -3.000000e+000 -1.500000e+000
      vertex   -1.497722e+000 -8.263164e-002 -1.500000e+000
    endloop
  endfacet
  facet normal 0.000000e+000 -0.000000e+000 -1.000000e+000
    outer loop
      vertex   -1.479542e+000 -2.468919e-001 -1.500000e+000
      vertex   -1.443402e+000 -4.081552e-001 -1.500000e+000
      vertex   -5.000000e+000 -3.000000e+000 -1.500000e+000
    endloop
  endfacet
  facet normal 0.000000e+000 0.000000e+000 -1.000000e+000
    outer loop
      vertex   -5.000000e+000 -3.000000e+000 -1.500000e+000
      vertex   -1.443402e+000 -4.081552e-001 -1.500000e+000
      vertex   -1.389741e+000 -5.644641e-001 -1.500000e+000
    endloop
  endfacet
  facet normal -0.000000e+000 0.000000e+000 -1.000000e+000
    outer loop
      vertex   -1.319211e+000 -7.139211e-001 -1.500000e+000
      vertex   -5.000000e+000 -3.000000e+000 -1.500000e+000
      vertex   -1.389741e+000 -5.644641e-001 -1.500000e+000
    endloop
  endfacet
  facet normal 0.000000e+000 -0.000000e+000 -1.000000e+000
    outer loop
      vertex   -1.319211e+000 -7.139211e-001 -1.500000e+000
      vertex   -1.232667e+000 -8.547121e-001 -1.500000e+000
      vertex   -5.000000e+000 -3.000000e+000 -1.500000e+000
    endloop
  endfacet
  facet normal 0.000000e+000 0.000000e+000 -1.000000e+000
    outer loop
      vertex   -5.000000e+000 -3.000000e+000 -1.500000e+000
      vertex   -1.232667e+000 -8.547121e-001 -1.500000e+000
      vertex   -1.131160e+000 -9.851280e-001 -1.500000e+000
    endloop
  endfacet
  facet normal -0.000000e+000 0.000000e+000 -1.000000e+000
    outer loop
      vertex   -1.015922e+000 -1.103586e+000 -1.500000e+000
      vertex   -5.000000e+000 -3.000000e+000 -1.500000e+000
      vertex   -1.131160e+000 -9.851280e-001 -1.500000e+000
    endloop
  endfacet
  facet normal -0.000000e+000 0.000000e+000 -1.000000e+000
    outer loop
      vertex   -1.015922e+000 -1.103586e+000 -1.500000e+000
      vertex   -3.000000e+000 -5.000000e+000 -1.500000e+000
      vertex   -5.000000e+000 -3.000000e+000 -1.500000e+000
    endloop
  endfacet
  facet normal 0.000000e+000 -0.000000e+000 -1.000000e+000
    outer loop
      vertex   -1.015922e+000 -1.103586e+000 -1.500000e+000
      vertex   -8.883529e-001 -1.208648e+000 -1.500000e+000
      vertex   -3.000000e+000 -5.000000e+000 -1.500000e+000
    endloop
  endfacet
  facet normal 0.000000e+000 0.000000e+000 -1.000000e+000
    outer loop
      vertex   -3.000000e+000 -5.000000e+000 -1.500000e+000
      vertex   -8.883529e-001 -1.208648e+000 -1.500000e+000
      vertex   -7.500000e-001 -1.299038e+000 -1.500000e+000
    endloop
  endfacet
  facet normal -0.000000e+000 0.000000e+000 -1.000000e+000
    outer loop
      vertex   -6.025431e-001 -1.373660e+000 -1.500000e+000
      vertex   -3.000000e+000 -5.000000e+000 -1.500000e+000
      vertex   -7.500000e-001 -1.299038e+000 -1.500000e+000
    endloop
  endfacet
  facet normal 0.000000e+000 -0.000000e+000 -1.000000e+000
    outer loop
      vertex   -6.025431e-001 -1.373660e+000 -1.500000e+000
      vertex   -4.477722e-001 -1.431608e+000 -1.500000e+000
      vertex   -3.000000e+000 -5.000000e+000 -1.500000e+000
    endloop
  endfacet
  facet normal 0.000000e+000 0.000000e+000 -1.000000e+000
    outer loop
      vertex   -3.000000e+000 -5.000000e+000 -1.500000e+000
      vertex   -4.477722e-001 -1.431608e+000 -1.500000e+000
      vertex   -2.875659e-001 -1.472177e+000 -1.500000e+000
    endloop
  endfacet
  facet normal -0.000000e+000 0.000000e+000 -1.000000e+000
    outer loop
      vertex   -1.238690e-001 -1.494877e+000 -1.500000e+000
      vertex   -3.000000e+000 -5.000000e+000 -1.500000e+000
      vertex   -2.875659e-001 -1.472177e+000 -1.500000e+000
    endloop
  endfacet
  facet normal 0.000000e+000 -0.000000e+000 -1.000000e+000
    outer loop
      vertex   -1.238690e-001 -1.494877e+000 -1.500000e+000
      vertex   4.133151e-002 -1.499430e+000 -1.500000e+000
      vertex   -3.000000e+000 -5.000000e+000 -1.500000e+000
    endloop
  endfacet
  facet normal 0.000000e+000 0.000000e+000 -1.000000e+000
    outer loop
      vertex   -3.000000e+000 -5.000000e+000 -1.500000e+000
      vertex   4.133151e-002 -1.499430e+000 -1.500000e+000
      vertex   3.000000e+000 -5.000000e+000 -1.500000e+000
    endloop
  endfacet
  facet normal 0.000000e+000 0.000000e+000 -1.000000e+000
    outer loop
      vertex   3.000000e+000 -5.000000e+000 -1.500000e+000
      vertex   4.133151e-002 -1.499430e+000 -1.500000e+000
      vertex   2.060303e-001 -1.485783e+000 -1.500000e+000
    endloop
  endfacet
  facet normal -0.000000e+000 -0.000000e+000 -1.000000e+000
    outer loop
      vertex   3.682282e-001 -1.454100e+000 -1.500000e+000
      vertex   3.000000e+000 -5.000000e+000 -1.500000e+000
      vertex   2.060303e-001 -1.485783e+000 -1.500000e+000
    endloop
  endfacet
  facet normal 0.000000e+000 0.000000e+000 -1.000000e+000
    outer loop
      vertex   3.682282e-001 -1.454100e+000 -1.500000e+000
      vertex   5.259563e-001 -1.404767e+000 -1.500000e+000
      vertex   3.000000e+000 -5.000000e+000 -1.500000e+000
    endloop
  endfacet
  facet normal 0.000000e+000 0.000000e+000 -1.000000e+000
    outer loop
      vertex   3.000000e+000 -5.000000e+000 -1.500000e+000
      vertex   5.259563e-001 -1.404767e+000 -1.500000e+000
      vertex   6.773000e-001 -1.338381e+000 -1.500000e+000
    endloop
  endfacet
  facet normal -0.000000e+000 -0.000000e+000 -1.000000e+000
    outer loop
      vertex   8.204222e-001 -1.255750e+000 -1.500000e+000
      vertex   3.000000e+000 -5.000000e+000 -1.500000e+000
      vertex   6.773000e-001 -1.338381e+000 -1.500000e+000
    endloop
  endfacet
  facet normal 0.000000e+000 0.000000e+000 -1.000000e+000
    outer loop
      vertex   8.204222e-001 -1.255750e+000 -1.500000e+000
      vertex   9.535856e-001 -1.157875e+000 -1.500000e+000
      vertex   3.000000e+000 -5.000000e+000 -1.500000e+000
    endloop
  endfacet
  facet normal 0.000000e+000 0.000000e+000 -1.000000e+000
    outer loop
      vertex   3.000000e+000 -5.000000e+000 -1.500000e+000
      vertex   9.535856e-001 -1.157875e+000 -1.500000e+000
      vertex   1.075174e+000 -1.045945e+000 -1.500000e+000
    endloop
  endfacet
  facet normal 0.000000e+000 0.000000e+000 -1.000000e+000
    outer loop
      vertex   5.000000e+000 -3.000000e+000 -1.500000e+000
      vertex   1.075174e+000 -1.045945e+000 -1.500000e+000
      vertex   1.183711e+000 -9.213191e-001 -1.500000e+000
    endloop
  endfacet
  facet normal -0.000000e+000 -0.000000e+000 -1.000000e+000
    outer loop
      vertex   1.277879e+000 -7.855094e-001 -1.500000e+000
      vertex   5.000000e+000 -3.000000e+000 -1.500000e+000
      vertex   1.183711e+000 -9.213191e-001 -1.500000e+000
    endloop
  endfacet
  facet normal 0.000000e+000 0.000000e+000 -1.000000e+000
    outer loop
      vertex   1.277879e+000 -7.855094e-001 -1.500000e+000
      vertex   1.356536e+000 -6.401647e-001 -1.500000e+000
      vertex   5.000000e+000 -3.000000e+000 -1.500000e+000
    endloop
  endfacet
  facet normal 0.000000e+000 0.000000e+000 -1.000000e+000
    outer loop
      vertex   5.000000e+000 -3.000000e+000 -1.500000e+000
      vertex   1.356536e+000 -6.401647e-001 -1.500000e+000
      vertex   1.418726e+000 -4.870492e-001 -1.500000e+000
    endloop
  endfacet
  facet normal -0.000000e+000 -0.000000e+000 -1.000000e+000
    outer loop
      vertex   1.463695e+000 -3.280216e-001 -1.500000e+000
      vertex   5.000000e+000 -3.000000e+000 -1.500000e+000
      vertex   1.418726e+000 -4.870492e-001 -1.500000e+000
    endloop
  endfacet
  facet normal 0.000000e+000 0.000000e+000 -1.000000e+000
    outer loop
      vertex   1.463695e+000 -3.280216e-001 -1.500000e+000
      vertex   1.490896e+000 -1.650123e-001 -1.500000e+000
      vertex   5.000000e+000 -3.000000e+000 -1.500000e+000
    endloop
  endfacet
  facet normal 0.000000e+000 0.000000e+000 -1.000000e+000
    outer loop
      vertex   5.000000e+000 -3.000000e+000 -1.500000e+000
      vertex   1.490896e+000 -1.650123e-001 -1.500000e+000
      vertex   1.500000e+000 1.836970e-016 -1.500000e+000
    endloop
  endfacet
  facet normal -0.000000e+000 -0.000000e+000 -1.000000e+000
    outer loop
      vertex   5.000000e+000 3.000000e+000 -1.500000e+000
      vertex   5.000000e+000 -3.000000e+000 -1.500000e+000
      vertex   1.500000e+000 1.836970e-016 -1.500000e+000
    endloop
  endfacet
  facet normal -0.000000e+000 -0.000000e+000 -1.000000e+000
    outer loop
      vertex   -3.000000e+000 5.000000e+000 -1.500000e+000
      vertex   -1.015922e+000 1.103586e+000 -1.500000e+000
      vertex   -5.000000e+000 3.000000e+000 -1.500000e+000
    endloop
  endfacet
  facet normal 0.000000e+000 -0.000000e+000 -1.000000e+000
    outer loop
      vertex   -5.000000e+000 3.000000e+000 -1.500000e+000
      vertex   -1.497722e+000 8.263164e-002 -1.500000e+000
      vertex   -5.000000e+000 -3.000000e+000 -1.500000e+000
    endloop
  endfacet
  facet normal 0.000000e+000 0.000000e+000 -1.000000e+000
    outer loop
      vertex   3.000000e+000 -5.000000e+000 -1.500000e+000
      vertex   1.075174e+000 -1.045945e+000 -1.500000e+000
      vertex   5.000000e+000 -3.000000e+000 -1.500000e+000
    endloop
  endfacet
  facet normal 7.071068e-001 -7.071068e-001 0.000000e+000
    outer loop
      vertex   5.000000e+000 -3.000000e+000 -1.500000e+000
      vertex   5.000000e+000 -3.000000e+000 1.500000e+000
      vertex   3.000000e+000 -5.000000e+000 -1.500000e+000
    endloop
  endfacet
  facet normal 7.071068e-001 -7.071068e-001 0.000000e+000
    outer loop
      vertex   3.000000e+000 -5.000000e+000 -1.500000e+000
      vertex   5.000000e+000 -3.000000e+000 1.500000e+000
      vertex   3.000000e+000 -5.000000e+000 1.500000e+000
    endloop
  endfacet
  facet normal 1.000000e+000 0.000000e+000 -0.000000e+000
    outer loop
      vertex   5.000000e+000 -3.000000e+000 -1.500000e+000
      vertex   5.000000e+000 3.000000e+000 -1.500000e+000
      vertex   5.000000e+000 -3.000000e+000 1.500000e+000
    endloop
  endfacet
  facet normal 1.000000e+000 -0.000000e+000 0.000000e+000
    outer loop
      vertex   5.000000e+000 -3.000000e+000 1.500000e+000
      vertex   5.000000e+000 3.000000e+000 -1.500000e+000
      vertex   5.000000e+000 3.000000e+000 1.500000e+000
    endloop
  endfacet
  facet normal -7.071068e-001 7.071068e-001 0.000000e+000
    outer loop
      vertex   -3.000000e+000 5.000000e+000 1.500000e+000
      vertex   -3.000000e+000 5.000000e+000 -1.500000e+000
      vertex   -5.000000e+000 3.000000e+000 1.500000e+000
    endloop
  endfacet
  facet normal -7.071068e-001 7.071068e-001 0.000000e+000
    outer loop
      vertex   -5.000000e+000 3.000000e+000 1.500000e+000
      vertex   -3.000000e+000 5.000000e+000 -1.500000e+000
      vertex   -5.000000e+000 3.000000e+000 -1.500000e+000
    endloop
  endfacet
  facet normal -1.480297e-016 1.000000e+000 0.000000e+000
    outer loop
      vertex   -3.000000e+000 5.000000e+000 1.500000e+000
      vertex   3.000000e+000 5.000000e+000 1.500000e+000
      vertex   -3.000000e+000 5.000000e+000 -1.500000e+000
    endloop
  endfacet
  facet normal -1.480297e-016 1.000000e+000 0.000000e+000
    outer loop
      vertex   -3.000000e+000 5.000000e+000 -1.500000e+000
      vertex   3.000000e+000 5.000000e+000 1.500000e+000
      vertex   3.000000e+000 5.000000e+000 -1.500000e+000
    endloop
  endfacet
  facet normal 7.071068e-001 7.071068e-001 -0.000000e+000
    outer loop
      vertex   3.000000e+000 5.000000e+000 -1.500000e+000
      vertex   3.000000e+000 5.000000e+000 1.500000e+000
      vertex   5.000000e+000 3.000000e+000 -1.500000e+000
    endloop
  endfacet
  facet normal 7.071068e-001 7.071068e-001 0.000000e+000
    outer loop
      vertex   5.000000e+000 3.000000e+000 -1.500000e+000
      vertex   3.000000e+000 5.000000e+000 1.500000e+000
      vertex   5.000000e+000 3.000000e+000 1.500000e+000
    endloop
  endfacet
  facet normal -9.984815e-001 5.508776e-002 0.000000e+000
    outer loop
      vertex   1.490896e+000 -1.650123e-001 -1.500000e+000
      vertex   1.490896e+000 -1.650123e-001 1.500000e+000
      vertex   1.500000e+000 1.836970e-016 -1.500000e+000
    endloop
  endfacet
  facet normal -9.863613e-001 1.645946e-001 0.000000e+000
    outer loop
      vertex   1.490896e+000 -1.650123e-001 -1.500000e+000
      vertex   1.463695e+000 -3.280216e-001 1.500000e+000
      vertex   1.490896e+000 -1.650123e-001 1.500000e+000
    endloop
  endfacet
  facet normal -9.863613e-001 1.645946e-001 0.000000e+000
    outer loop
      vertex   1.490896e+000 -1.650123e-001 -1.500000e+000
      vertex   1.463695e+000 -3.280216e-001 -1.500000e+000
      vertex   1.463695e+000 -3.280216e-001 1.500000e+000
    endloop
  endfacet
  facet normal -9.622680e-001 2.721035e-001 0.000000e+000
    outer loop
      vertex   1.463695e+000 -3.280216e-001 1.500000e+000
      vertex   1.463695e+000 -3.280216e-001 -1.500000e+000
      vertex   1.418726e+000 -4.870492e-001 1.500000e+000
    endloop
  endfacet
  facet normal -9.622680e-001 2.721035e-001 0.000000e+000
    outer loop
      vertex   1.418726e+000 -4.870492e-001 1.500000e+000
      vertex   1.463695e+000 -3.280216e-001 -1.500000e+000
      vertex   1.418726e+000 -4.870492e-001 -1.500000e+000
    endloop
  endfacet
  facet normal -9.264941e-001 3.763094e-001 0.000000e+000
    outer loop
      vertex   1.356536e+000 -6.401647e-001 1.500000e+000
      vertex   1.418726e+000 -4.870492e-001 -1.500000e+000
      vertex   1.356536e+000 -6.401647e-001 -1.500000e+000
    endloop
  endfacet
  facet normal -8.794738e-001 4.759474e-001 0.000000e+000
    outer loop
      vertex   1.277879e+000 -7.855094e-001 1.500000e+000
      vertex   1.356536e+000 -6.401647e-001 -1.500000e+000
      vertex   1.277879e+000 -7.855094e-001 -1.500000e+000
    endloop
  endfacet
  facet normal -8.217778e-001 5.698081e-001 0.000000e+000
    outer loop
      vertex   1.183711e+000 -9.213191e-001 1.500000e+000
      vertex   1.277879e+000 -7.855094e-001 -1.500000e+000
      vertex   1.183711e+000 -9.213191e-001 -1.500000e+000
    endloop
  endfacet
  facet normal -7.541066e-001 6.567520e-001 0.000000e+000
    outer loop
      vertex   1.075174e+000 -1.045945e+000 1.500000e+000
      vertex   1.183711e+000 -9.213191e-001 -1.500000e+000
      vertex   1.075174e+000 -1.045945e+000 -1.500000e+000
    endloop
  endfacet
  facet normal -6.772816e-001 7.357239e-001 0.000000e+000
    outer loop
      vertex   9.535856e-001 -1.157875e+000 1.500000e+000
      vertex   1.075174e+000 -1.045945e+000 -1.500000e+000
      vertex   9.535856e-001 -1.157875e+000 -1.500000e+000
    endloop
  endfacet
  facet normal -5.922353e-001 8.057651e-001 0.000000e+000
    outer loop
      vertex   8.204222e-001 -1.255750e+000 1.500000e+000
      vertex   9.535856e-001 -1.157875e+000 -1.500000e+000
      vertex   8.204222e-001 -1.255750e+000 -1.500000e+000
    endloop
  endfacet
  facet normal -5.000000e-001 8.660254e-001 0.000000e+000
    outer loop
      vertex   6.773000e-001 -1.338381e+000 1.500000e+000
      vertex   8.204222e-001 -1.255750e+000 -1.500000e+000
      vertex   6.773000e-001 -1.338381e+000 -1.500000e+000
    endloop
  endfacet
  facet normal -4.016954e-001 9.157733e-001 3.149018e-017
    outer loop
      vertex   5.259563e-001 -1.404767e+000 1.500000e+000
      vertex   6.773000e-001 -1.338381e+000 -1.500000e+000
      vertex   5.259563e-001 -1.404767e+000 -1.500000e+000
    endloop
  endfacet
  facet normal -2.985148e-001 9.544050e-001 -1.137145e-016
    outer loop
      vertex   3.682282e-001 -1.454100e+000 1.500000e+000
      vertex   5.259563e-001 -1.404767e+000 -1.500000e+000
      vertex   3.682282e-001 -1.454100e+000 -1.500000e+000
    endloop
  endfacet
  facet normal -1.917106e-001 9.814515e-001 2.274291e-017
    outer loop
      vertex   2.060303e-001 -1.485783e+000 1.500000e+000
      vertex   3.682282e-001 -1.454100e+000 -1.500000e+000
      vertex   2.060303e-001 -1.485783e+000 -1.500000e+000
    endloop
  endfacet
  facet normal -8.257935e-002 9.965845e-001 8.747272e-018
    outer loop
      vertex   4.133151e-002 -1.499430e+000 1.500000e+000
      vertex   2.060303e-001 -1.485783e+000 -1.500000e+000
      vertex   4.133151e-002 -1.499430e+000 -1.500000e+000
    endloop
  endfacet
  facet normal 2.755434e-002 9.996203e-001 -3.061545e-018
    outer loop
      vertex   -1.238690e-001 -1.494877e+000 1.500000e+000
      vertex   4.133151e-002 -1.499430e+000 -1.500000e+000
      vertex   -1.238690e-001 -1.494877e+000 -1.500000e+000
    endloop
  endfacet
  facet normal 1.373536e-001 9.905221e-001 -1.312091e-017
    outer loop
      vertex   -2.875659e-001 -1.472177e+000 1.500000e+000
      vertex   -1.238690e-001 -1.494877e+000 -1.500000e+000
      vertex   -2.875659e-001 -1.472177e+000 -1.500000e+000
    endloop
  endfacet
  facet normal 2.454855e-001 9.694003e-001 -2.624182e-017
    outer loop
      vertex   -4.477722e-001 -1.431608e+000 1.500000e+000
      vertex   -2.875659e-001 -1.472177e+000 -1.500000e+000
      vertex   -4.477722e-001 -1.431608e+000 -1.500000e+000
    endloop
  endfacet
  facet normal 3.506376e-001 9.365112e-001 3.149018e-017
    outer loop
      vertex   -6.025431e-001 -1.373660e+000 1.500000e+000
      vertex   -4.477722e-001 -1.431608e+000 -1.500000e+000
      vertex   -6.025431e-001 -1.373660e+000 -1.500000e+000
    endloop
  endfacet
  facet normal 4.515334e-001 8.922542e-001 -3.498909e-017
    outer loop
      vertex   -7.500000e-001 -1.299038e+000 1.500000e+000
      vertex   -6.025431e-001 -1.373660e+000 -1.500000e+000
      vertex   -7.500000e-001 -1.299038e+000 -1.500000e+000
    endloop
  endfacet
  facet normal 5.469482e-001 8.371665e-001 -5.948145e-017
    outer loop
      vertex   -8.883529e-001 -1.208648e+000 1.500000e+000
      vertex   -7.500000e-001 -1.299038e+000 -1.500000e+000
      vertex   -8.883529e-001 -1.208648e+000 -1.500000e+000
    endloop
  endfacet
  facet normal 6.357237e-001 7.719167e-001 0.000000e+000
    outer loop
      vertex   -1.015922e+000 -1.103586e+000 1.500000e+000
      vertex   -8.883529e-001 -1.208648e+000 -1.500000e+000
      vertex   -1.015922e+000 -1.103586e+000 -1.500000e+000
    endloop
  endfacet
  facet normal 7.167825e-001 6.972968e-001 0.000000e+000
    outer loop
      vertex   -1.131160e+000 -9.851280e-001 1.500000e+000
      vertex   -1.015922e+000 -1.103586e+000 -1.500000e+000
      vertex   -1.131160e+000 -9.851280e-001 -1.500000e+000
    endloop
  endfacet
  facet normal 7.891405e-001 6.142127e-001 0.000000e+000
    outer loop
      vertex   -1.232667e+000 -8.547121e-001 1.500000e+000
      vertex   -1.131160e+000 -9.851280e-001 -1.500000e+000
      vertex   -1.232667e+000 -8.547121e-001 -1.500000e+000
    endloop
  endfacet
  facet normal 8.519194e-001 5.236729e-001 0.000000e+000
    outer loop
      vertex   -1.319211e+000 -7.139211e-001 1.500000e+000
      vertex   -1.232667e+000 -8.547121e-001 -1.500000e+000
      vertex   -1.319211e+000 -7.139211e-001 -1.500000e+000
    endloop
  endfacet
  facet normal 9.043572e-001 4.267764e-001 0.000000e+000
    outer loop
      vertex   -1.389741e+000 -5.644641e-001 1.500000e+000
      vertex   -1.319211e+000 -7.139211e-001 -1.500000e+000
      vertex   -1.389741e+000 -5.644641e-001 -1.500000e+000
    endloop
  endfacet
  facet normal 9.458172e-001 3.246995e-001 0.000000e+000
    outer loop
      vertex   -1.443402e+000 -4.081552e-001 1.500000e+000
      vertex   -1.389741e+000 -5.644641e-001 -1.500000e+000
      vertex   -1.443402e+000 -4.081552e-001 -1.500000e+000
    endloop
  endfacet
  facet normal 9.757964e-001 2.186811e-001 0.000000e+000
    outer loop
      vertex   -1.479542e+000 -2.468919e-001 1.500000e+000
      vertex   -1.443402e+000 -4.081552e-001 -1.500000e+000
      vertex   -1.479542e+000 -2.468919e-001 -1.500000e+000
    endloop
  endfacet
  facet normal 9.939307e-001 1.100082e-001 0.000000e+000
    outer loop
      vertex   -1.497722e+000 -8.263164e-002 1.500000e+000
      vertex   -1.479542e+000 -2.468919e-001 -1.500000e+000
      vertex   -1.497722e+000 -8.263164e-002 -1.500000e+000
    endloop
  endfacet
  facet normal 1.000000e+000 -0.000000e+000 0.000000e+000
    outer loop
      vertex   -1.497722e+000 8.263164e-002 1.500000e+000
      vertex   -1.497722e+000 -8.263164e-002 -1.500000e+000
      vertex   -1.497722e+000 8.263164e-002 -1.500000e+000
    endloop
  endfacet
  facet normal 9.939307e-001 -1.100082e-001 0.000000e+000
    outer loop
      vertex   -1.479542e+000 2.468919e-001 1.500000e+000
      vertex   -1.497722e+000 8.263164e-002 -1.500000e+000
      vertex   -1.479542e+000 2.468919e-001 -1.500000e+000
    endloop
  endfacet
  facet normal 9.757964e-001 -2.186811e-001 0.000000e+000
    outer loop
      vertex   -1.443402e+000 4.081552e-001 1.500000e+000
      vertex   -1.479542e+000 2.468919e-001 -1.500000e+000
      vertex   -1.443402e+000 4.081552e-001 -1.500000e+000
    endloop
  endfacet
  facet normal 9.458172e-001 -3.246995e-001 0.000000e+000
    outer loop
      vertex   -1.389741e+000 5.644641e-001 1.500000e+000
      vertex   -1.443402e+000 4.081552e-001 -1.500000e+000
      vertex   -1.389741e+000 5.644641e-001 -1.500000e+000
    endloop
  endfacet
  facet normal 9.043572e-001 -4.267764e-001 0.000000e+000
    outer loop
      vertex   -1.319211e+000 7.139211e-001 1.500000e+000
      vertex   -1.389741e+000 5.644641e-001 -1.500000e+000
      vertex   -1.319211e+000 7.139211e-001 -1.500000e+000
    endloop
  endfacet
  facet normal 8.519194e-001 -5.236729e-001 0.000000e+000
    outer loop
      vertex   -1.232667e+000 8.547121e-001 1.500000e+000
      vertex   -1.319211e+000 7.139211e-001 -1.500000e+000
      vertex   -1.232667e+000 8.547121e-001 -1.500000e+000
    endloop
  endfacet
  facet normal 7.891405e-001 -6.142127e-001 0.000000e+000
    outer loop
      vertex   -1.131160e+000 9.851280e-001 1.500000e+000
      vertex   -1.232667e+000 8.547121e-001 -1.500000e+000
      vertex   -1.131160e+000 9.851280e-001 -1.500000e+000
    endloop
  endfacet
  facet normal 7.167825e-001 -6.972968e-001 0.000000e+000
    outer loop
      vertex   -1.015922e+000 1.103586e+000 1.500000e+000
      vertex   -1.131160e+000 9.851280e-001 -1.500000e+000
      vertex   -1.015922e+000 1.103586e+000 -1.500000e+000
    endloop
  endfacet
  facet normal 6.357237e-001 -7.719167e-001 8.397381e-017
    outer loop
      vertex   -8.883529e-001 1.208648e+000 1.500000e+000
      vertex   -1.015922e+000 1.103586e+000 -1.500000e+000
      vertex   -8.883529e-001 1.208648e+000 -1.500000e+000
    endloop
  endfacet
  facet normal 5.469482e-001 -8.371665e-001 5.948145e-017
    outer loop
      vertex   -7.500000e-001 1.299038e+000 1.500000e+000
      vertex   -8.883529e-001 1.208648e+000 -1.500000e+000
      vertex   -7.500000e-001 1.299038e+000 -1.500000e+000
    endloop
  endfacet
  facet normal 4.515334e-001 -8.922542e-001 -1.399564e-017
    outer loop
      vertex   -6.025431e-001 1.373660e+000 1.500000e+000
      vertex   -7.500000e-001 1.299038e+000 -1.500000e+000
      vertex   -6.025431e-001 1.373660e+000 -1.500000e+000
    endloop
  endfacet
  facet normal 3.506376e-001 -9.365112e-001 3.848800e-017
    outer loop
      vertex   -4.477722e-001 1.431608e+000 1.500000e+000
      vertex   -6.025431e-001 1.373660e+000 -1.500000e+000
      vertex   -4.477722e-001 1.431608e+000 -1.500000e+000
    endloop
  endfacet
  facet normal 2.454855e-001 -9.694003e-001 2.274291e-017
    outer loop
      vertex   -2.875659e-001 1.472177e+000 1.500000e+000
      vertex   -4.477722e-001 1.431608e+000 -1.500000e+000
      vertex   -2.875659e-001 1.472177e+000 -1.500000e+000
    endloop
  endfacet
  facet normal 1.373536e-001 -9.905221e-001 1.574509e-017
    outer loop
      vertex   -1.238690e-001 1.494877e+000 1.500000e+000
      vertex   -2.875659e-001 1.472177e+000 -1.500000e+000
      vertex   -1.238690e-001 1.494877e+000 -1.500000e+000
    endloop
  endfacet
  facet normal 2.755434e-002 -9.996203e-001 3.061545e-018
    outer loop
      vertex   4.133151e-002 1.499430e+000 1.500000e+000
      vertex   -1.238690e-001 1.494877e+000 -1.500000e+000
      vertex   4.133151e-002 1.499430e+000 -1.500000e+000
    endloop
  endfacet
  facet normal -8.257935e-002 -9.965845e-001 -8.747272e-018
    outer loop
      vertex   2.060303e-001 1.485783e+000 1.500000e+000
      vertex   4.133151e-002 1.499430e+000 -1.500000e+000
      vertex   2.060303e-001 1.485783e+000 -1.500000e+000
    endloop
  endfacet
  facet normal -1.917106e-001 -9.814515e-001 1.259607e-016
    outer loop
      vertex   3.682282e-001 1.454100e+000 1.500000e+000
      vertex   2.060303e-001 1.485783e+000 -1.500000e+000
      vertex   3.682282e-001 1.454100e+000 -1.500000e+000
    endloop
  endfacet
  facet normal -2.985148e-001 -9.544050e-001 -2.274291e-017
    outer loop
      vertex   5.259563e-001 1.404767e+000 1.500000e+000
      vertex   3.682282e-001 1.454100e+000 -1.500000e+000
      vertex   5.259563e-001 1.404767e+000 -1.500000e+000
    endloop
  endfacet
  facet normal -4.016954e-001 -9.157733e-001 0.000000e+000
    outer loop
      vertex   6.773000e-001 1.338381e+000 1.500000e+000
      vertex   5.259563e-001 1.404767e+000 -1.500000e+000
      vertex   6.773000e-001 1.338381e+000 -1.500000e+000
    endloop
  endfacet
  facet normal -5.000000e-001 -8.660254e-001 0.000000e+000
    outer loop
      vertex   8.204222e-001 1.255750e+000 1.500000e+000
      vertex   6.773000e-001 1.338381e+000 -1.500000e+000
      vertex   8.204222e-001 1.255750e+000 -1.500000e+000
    endloop
  endfacet
  facet normal -5.922353e-001 -8.057651e-001 0.000000e+000
    outer loop
      vertex   9.535856e-001 1.157875e+000 1.500000e+000
      vertex   8.204222e-001 1.255750e+000 -1.500000e+000
      vertex   9.535856e-001 1.157875e+000 -1.500000e+000
    endloop
  endfacet
  facet normal -6.772816e-001 -7.357239e-001 0.000000e+000
    outer loop
      vertex   1.075174e+000 1.045945e+000 1.500000e+000
      vertex   9.535856e-001 1.157875e+000 -1.500000e+000
      vertex   1.075174e+000 1.045945e+000 -1.500000e+000
    endloop
  endfacet
  facet normal -7.541066e-001 -6.567520e-001 0.000000e+000
    outer loop
      vertex   1.183711e+000 9.213191e-001 1.500000e+000
      vertex   1.075174e+000 1.045945e+000 -1.500000e+000
      vertex   1.183711e+000 9.213191e-001 -1.500000e+000
    endloop
  endfacet
  facet normal -8.217778e-001 -5.698081e-001 0.000000e+000
    outer loop
      vertex   1.277879e+000 7.855094e-001 1.500000e+000
      vertex   1.183711e+000 9.213191e-001 -1.500000e+000
      vertex   1.277879e+000 7.855094e-001 -1.500000e+000
    endloop
  endfacet
  facet normal -8.794738e-001 -4.759474e-001 0.000000e+000
    outer loop
      vertex   1.356536e+000 6.401647e-001 1.500000e+000
      vertex   1.277879e+000 7.855094e-001 -1.500000e+000
      vertex   1.356536e+000 6.401647e-001 -1.500000e+000
    endloop
  endfacet
  facet normal -9.264941e-001 -3.763094e-001 0.000000e+000
    outer loop
      vertex   1.418726e+000 4.870492e-001 1.500000e+000
      vertex   1.356536e+000 6.401647e-001 -1.500000e+000
      vertex   1.418726e+000 4.870492e-001 -1.500000e+000
    endloop
  endfacet
  facet normal -9.622680e-001 -2.721035e-001 0.000000e+000
    outer loop
      vertex   1.463695e+000 3.280216e-001 1.500000e+000
      vertex   1.418726e+000 4.870492e-001 -1.500000e+000
      vertex   1.463695e+000 3.280216e-001 -1.500000e+000
    endloop
  endfacet
  facet normal -9.863613e-001 -1.645946e-001 0.000000e+000
    outer loop
      vertex   1.490896e+000 1.650123e-001 1.500000e+000
      vertex   1.463695e+000 3.280216e-001 -1.500000e+000
      vertex   1.490896e+000 1.650123e-001 -1.500000e+000
    endloop
  endfacet
  facet normal -9.984815e-001 -5.508776e-002 0.000000e+000
    outer loop
      vertex   1.500000e+000 1.836970e-016 1.500000e+000
      vertex   1.490896e+000 1.650123e-001 -1.500000e+000
      vertex   1.500000e+000 1.836970e-016 -1.500000e+000
    endloop
  endfacet
  facet normal -9.984815e-001 5.508776e-002 0.000000e+000
    outer loop
      vertex   1.490896e+000 -1.650123e-001 1.500000e+000
      vertex   1.500000e+000 1.836970e-016 1.500000e+000
      vertex   1.500000e+000 1.836970e-016 -1.500000e+000
    endloop
  endfacet
  facet normal -9.264941e-001 3.763094e-001 0.000000e+000
    outer loop
      vertex   1.418726e+000 -4.870492e-001 1.500000e+000
      vertex   1.418726e+000 -4.870492e-001 -1.500000e+000
      vertex   1.356536e+000 -6.401647e-001 1.500000e+000
    endloop
  endfacet
  facet normal -8.794738e-001 4.759474e-001 0.000000e+000
    outer loop
      vertex   1.356536e+000 -6.401647e-001 1.500000e+000
      vertex   1.356536e+000 -6.401647e-001 -1.500000e+000
      vertex   1.277879e+000 -7.855094e-001 1.500000e+000
    endloop
  endfacet
  facet normal -8.217778e-001 5.698081e-001 0.000000e+000
    outer loop
      vertex   1.277879e+000 -7.855094e-001 1.500000e+000
      vertex   1.277879e+000 -7.855094e-001 -1.500000e+000
      vertex   1.183711e+000 -9.213191e-001 1.500000e+000
    endloop
  endfacet
  facet normal -7.541066e-001 6.567520e-001 0.000000e+000
    outer loop
      vertex   1.183711e+000 -9.213191e-001 1.500000e+000
      vertex   1.183711e+000 -9.213191e-001 -1.500000e+000
      vertex   1.075174e+000 -1.045945e+000 1.500000e+000
    endloop
  endfacet
  facet normal -6.772816e-001 7.357239e-001 0.000000e+000
    outer loop
      vertex   1.075174e+000 -1.045945e+000 1.500000e+000
      vertex   1.075174e+000 -1.045945e+000 -1.500000e+000
      vertex   9.535856e-001 -1.157875e+000 1.500000e+000
    endloop
  endfacet
  facet normal -5.922353e-001 8.057651e-001 0.000000e+000
    outer loop
      vertex   9.535856e-001 -1.157875e+000 1.500000e+000
      vertex   9.535856e-001 -1.157875e+000 -1.500000e+000
      vertex   8.204222e-001 -1.255750e+000 1.500000e+000
    endloop
  endfacet
  facet normal -5.000000e-001 8.660254e-001 0.000000e+000
    outer loop
      vertex   8.204222e-001 -1.255750e+000 1.500000e+000
      vertex   8.204222e-001 -1.255750e+000 -1.500000e+000
      vertex   6.773000e-001 -1.338381e+000 1.500000e+000
    endloop
  endfacet
  facet normal -4.016954e-001 9.157733e-001 0.000000e+000
    outer loop
      vertex   6.773000e-001 -1.338381e+000 1.500000e+000
      vertex   6.773000e-001 -1.338381e+000 -1.500000e+000
      vertex   5.259563e-001 -1.404767e+000 1.500000e+000
    endloop
  endfacet
  facet normal -2.985148e-001 9.544050e-001 2.209453e-017
    outer loop
      vertex   5.259563e-001 -1.404767e+000 1.500000e+000
      vertex   5.259563e-001 -1.404767e+000 -1.500000e+000
      vertex   3.682282e-001 -1.454100e+000 1.500000e+000
    endloop
  endfacet
  facet normal -1.917106e-001 9.814515e-001 -1.275472e-016
    outer loop
      vertex   3.682282e-001 -1.454100e+000 1.500000e+000
      vertex   3.682282e-001 -1.454100e+000 -1.500000e+000
      vertex   2.060303e-001 -1.485783e+000 1.500000e+000
    endloop
  endfacet
  facet normal -8.257935e-002 9.965845e-001 9.168149e-018
    outer loop
      vertex   2.060303e-001 -1.485783e+000 1.500000e+000
      vertex   2.060303e-001 -1.485783e+000 -1.500000e+000
      vertex   4.133151e-002 -1.499430e+000 1.500000e+000
    endloop
  endfacet
  facet normal 2.755434e-002 9.996203e-001 -3.122879e-018
    outer loop
      vertex   4.133151e-002 -1.499430e+000 1.500000e+000
      vertex   4.133151e-002 -1.499430e+000 -1.500000e+000
      vertex   -1.238690e-001 -1.494877e+000 1.500000e+000
    endloop
  endfacet
  facet normal 1.373536e-001 9.905221e-001 -1.524931e-017
    outer loop
      vertex   -1.238690e-001 -1.494877e+000 1.500000e+000
      vertex   -1.238690e-001 -1.494877e+000 -1.500000e+000
      vertex   -2.875659e-001 -1.472177e+000 1.500000e+000
    endloop
  endfacet
  facet normal 2.454855e-001 9.694003e-001 -2.271197e-017
    outer loop
      vertex   -2.875659e-001 -1.472177e+000 1.500000e+000
      vertex   -2.875659e-001 -1.472177e+000 -1.500000e+000
      vertex   -4.477722e-001 -1.431608e+000 1.500000e+000
    endloop
  endfacet
  facet normal 3.506376e-001 9.365112e-001 -3.892859e-017
    outer loop
      vertex   -4.477722e-001 -1.431608e+000 1.500000e+000
      vertex   -4.477722e-001 -1.431608e+000 -1.500000e+000
      vertex   -6.025431e-001 -1.373660e+000 1.500000e+000
    endloop
  endfacet
  facet normal 4.515334e-001 8.922542e-001 1.590981e-017
    outer loop
      vertex   -6.025431e-001 -1.373660e+000 1.500000e+000
      vertex   -6.025431e-001 -1.373660e+000 -1.500000e+000
      vertex   -7.500000e-001 -1.299038e+000 1.500000e+000
    endloop
  endfacet
  facet normal 5.469482e-001 8.371665e-001 -5.948412e-017
    outer loop
      vertex   -7.500000e-001 -1.299038e+000 1.500000e+000
      vertex   -7.500000e-001 -1.299038e+000 -1.500000e+000
      vertex   -8.883529e-001 -1.208648e+000 1.500000e+000
    endloop
  endfacet
  facet normal 6.357237e-001 7.719167e-001 -8.402572e-017
    outer loop
      vertex   -8.883529e-001 -1.208648e+000 1.500000e+000
      vertex   -8.883529e-001 -1.208648e+000 -1.500000e+000
      vertex   -1.015922e+000 -1.103586e+000 1.500000e+000
    endloop
  endfacet
  facet normal 7.167825e-001 6.972968e-001 0.000000e+000
    outer loop
      vertex   -1.015922e+000 -1.103586e+000 1.500000e+000
      vertex   -1.015922e+000 -1.103586e+000 -1.500000e+000
      vertex   -1.131160e+000 -9.851280e-001 1.500000e+000
    endloop
  endfacet
  facet normal 7.891405e-001 6.142127e-001 0.000000e+000
    outer loop
      vertex   -1.131160e+000 -9.851280e-001 1.500000e+000
      vertex   -1.131160e+000 -9.851280e-001 -1.500000e+000
      vertex   -1.232667e+000 -8.547121e-001 1.500000e+000
    endloop
  endfacet
  facet normal 8.519194e-001 5.236729e-001 0.000000e+000
    outer loop
      vertex   -1.232667e+000 -8.547121e-001 1.500000e+000
      vertex   -1.232667e+000 -8.547121e-001 -1.500000e+000
      vertex   -1.319211e+000 -7.139211e-001 1.500000e+000
    endloop
  endfacet
  facet normal 9.043572e-001 4.267764e-001 0.000000e+000
    outer loop
      vertex   -1.319211e+000 -7.139211e-001 1.500000e+000
      vertex   -1.319211e+000 -7.139211e-001 -1.500000e+000
      vertex   -1.389741e+000 -5.644641e-001 1.500000e+000
    endloop
  endfacet
  facet normal 9.458172e-001 3.246995e-001 0.000000e+000
    outer loop
      vertex   -1.389741e+000 -5.644641e-001 1.500000e+000
      vertex   -1.389741e+000 -5.644641e-001 -1.500000e+000
      vertex   -1.443402e+000 -4.081552e-001 1.500000e+000
    endloop
  endfacet
  facet normal 9.757964e-001 2.186811e-001 0.000000e+000
    outer loop
      vertex   -1.443402e+000 -4.081552e-001 1.500000e+000
      vertex   -1.443402e+000 -4.081552e-001 -1.500000e+000
      vertex   -1.479542e+000 -2.468919e-001 1.500000e+000
    endloop
  endfacet
  facet normal 9.939307e-001 1.100082e-001 0.000000e+000
    outer loop
      vertex   -1.479542e+000 -2.468919e-001 1.500000e+000
      vertex   -1.479542e+000 -2.468919e-001 -1.500000e+000
      vertex   -1.497722e+000 -8.263164e-002 1.500000e+000
    endloop
  endfacet
  facet normal 1.000000e+000 -0.000000e+000 0.000000e+000
    outer loop
      vertex   -1.497722e+000 -8.263164e-002 1.500000e+000
      vertex   -1.497722e+000 -8.263164e-002 -1.500000e+000
      vertex   -1.497722e+000 8.263164e-002 1.500000e+000
    endloop
  endfacet
  facet normal 9.939307e-001 -1.100082e-001 0.000000e+000
    outer loop
      vertex   -1.497722e+000 8.263164e-002 1.500000e+000
      vertex   -1.497722e+000 8.263164e-002 -1.500000e+000
      vertex   -1.479542e+000 2.468919e-001 1.500000e+000
    endloop
  endfacet
  facet normal 9.757964e-001 -2.186811e-001 0.000000e+000
    outer loop
      vertex   -1.479542e+000 2.468919e-001 1.500000e+000
      vertex   -1.479542e+000 2.468919e-001 -1.500000e+000
      vertex   -1.443402e+000 4.081552e-001 1.500000e+000
    endloop
  endfacet
  facet normal 9.458172e-001 -3.246995e-001 0.000000e+000
    outer loop
      vertex   -1.443402e+000 4.081552e-001 1.500000e+000
      vertex   -1.443402e+000 4.081552e-001 -1.500000e+000
      vertex   -1.389741e+000 5.644641e-001 1.500000e+000
    endloop
  endfacet
  facet normal 9.043572e-001 -4.267764e-001 0.000000e+000
    outer loop
      vertex   -1.389741e+000 5.644641e-001 1.500000e+000
      vertex   -1.389741e+000 5.644641e-001 -1.500000e+000
      vertex   -1.319211e+000 7.139211e-001 1.500000e+000
    endloop
  endfacet
  facet normal 8.519194e-001 -5.236729e-001 0.000000e+000
    outer loop
      vertex   -1.319211e+000 7.139211e-001 1.500000e+000
      vertex   -1.319211e+000 7.139211e-001 -1.500000e+000
      vertex   -1.232667e+000 8.547121e-001 1.500000e+000
    endloop
  endfacet
  facet normal 7.891405e-001 -6.142127e-001 0.000000e+000
    outer loop
      vertex   -1.232667e+000 8.547121e-001 1.500000e+000
      vertex   -1.232667e+000 8.547121e-001 -1.500000e+000
      vertex   -1.131160e+000 9.851280e-001 1.500000e+000
    endloop
  endfacet
  facet normal 7.167825e-001 -6.972968e-001 0.000000e+000
    outer loop
      vertex   -1.131160e+000 9.851280e-001 1.500000e+000
      vertex   -1.131160e+000 9.851280e-001 -1.500000e+000
      vertex   -1.015922e+000 1.103586e+000 1.500000e+000
    endloop
  endfacet
  facet normal 6.357237e-001 -7.719167e-001 0.000000e+000
    outer loop
      vertex   -1.015922e+000 1.103586e+000 1.500000e+000
      vertex   -1.015922e+000 1.103586e+000 -1.500000e+000
      vertex   -8.883529e-001 1.208648e+000 1.500000e+000
    endloop
  endfacet
  facet normal 5.469482e-001 -8.371665e-001 5.948412e-017
    outer loop
      vertex   -8.883529e-001 1.208648e+000 1.500000e+000
      vertex   -8.883529e-001 1.208648e+000 -1.500000e+000
      vertex   -7.500000e-001 1.299038e+000 1.500000e+000
    endloop
  endfacet
  facet normal 4.515334e-001 -8.922542e-001 3.422047e-017
    outer loop
      vertex   -7.500000e-001 1.299038e+000 1.500000e+000
      vertex   -7.500000e-001 1.299038e+000 -1.500000e+000
      vertex   -6.025431e-001 1.373660e+000 1.500000e+000
    endloop
  endfacet
  facet normal 3.506376e-001 -9.365112e-001 -3.038717e-017
    outer loop
      vertex   -6.025431e-001 1.373660e+000 1.500000e+000
      vertex   -6.025431e-001 1.373660e+000 -1.500000e+000
      vertex   -4.477722e-001 1.431608e+000 1.500000e+000
    endloop
  endfacet
  facet normal 2.454855e-001 -9.694003e-001 2.725436e-017
    outer loop
      vertex   -4.477722e-001 1.431608e+000 1.500000e+000
      vertex   -4.477722e-001 1.431608e+000 -1.500000e+000
      vertex   -2.875659e-001 1.472177e+000 1.500000e+000
    endloop
  endfacet
  facet normal 1.373536e-001 -9.905221e-001 1.270776e-017
    outer loop
      vertex   -2.875659e-001 1.472177e+000 1.500000e+000
      vertex   -2.875659e-001 1.472177e+000 -1.500000e+000
      vertex   -1.238690e-001 1.494877e+000 1.500000e+000
    endloop
  endfacet
  facet normal 2.755434e-002 -9.996203e-001 3.059147e-018
    outer loop
      vertex   -1.238690e-001 1.494877e+000 1.500000e+000
      vertex   -1.238690e-001 1.494877e+000 -1.500000e+000
      vertex   4.133151e-002 1.499430e+000 1.500000e+000
    endloop
  endfacet
  facet normal -8.257935e-002 -9.965845e-001 -9.359152e-018
    outer loop
      vertex   4.133151e-002 1.499430e+000 1.500000e+000
      vertex   4.133151e-002 1.499430e+000 -1.500000e+000
      vertex   2.060303e-001 1.485783e+000 1.500000e+000
    endloop
  endfacet
  facet normal -1.917106e-001 -9.814515e-001 -2.128416e-017
    outer loop
      vertex   2.060303e-001 1.485783e+000 1.500000e+000
      vertex   2.060303e-001 1.485783e+000 -1.500000e+000
      vertex   3.682282e-001 1.454100e+000 1.500000e+000
    endloop
  endfacet
  facet normal -2.985148e-001 -9.544050e-001 1.136622e-016
    outer loop
      vertex   3.682282e-001 1.454100e+000 1.500000e+000
      vertex   3.682282e-001 1.454100e+000 -1.500000e+000
      vertex   5.259563e-001 1.404767e+000 1.500000e+000
    endloop
  endfacet
  facet normal -4.016954e-001 -9.157733e-001 -2.973143e-017
    outer loop
      vertex   5.259563e-001 1.404767e+000 1.500000e+000
      vertex   5.259563e-001 1.404767e+000 -1.500000e+000
      vertex   6.773000e-001 1.338381e+000 1.500000e+000
    endloop
  endfacet
  facet normal -5.000000e-001 -8.660254e-001 -0.000000e+000
    outer loop
      vertex   6.773000e-001 1.338381e+000 1.500000e+000
      vertex   6.773000e-001 1.338381e+000 -1.500000e+000
      vertex   8.204222e-001 1.255750e+000 1.500000e+000
    endloop
  endfacet
  facet normal -5.922353e-001 -8.057651e-001 -0.000000e+000
    outer loop
      vertex   8.204222e-001 1.255750e+000 1.500000e+000
      vertex   8.204222e-001 1.255750e+000 -1.500000e+000
      vertex   9.535856e-001 1.157875e+000 1.500000e+000
    endloop
  endfacet
  facet normal -6.772816e-001 -7.357239e-001 -0.000000e+000
    outer loop
      vertex   9.535856e-001 1.157875e+000 1.500000e+000
      vertex   9.535856e-001 1.157875e+000 -1.500000e+000
      vertex   1.075174e+000 1.045945e+000 1.500000e+000
    endloop
  endfacet
  facet normal -7.541066e-001 -6.567520e-001 -0.000000e+000
    outer loop
      vertex   1.075174e+000 1.045945e+000 1.500000e+000
      vertex   1.075174e+000 1.045945e+000 -1.500000e+000
      vertex   1.183711e+000 9.213191e-001 1.500000e+000
    endloop
  endfacet
  facet normal -8.217778e-001 -5.698081e-001 -0.000000e+000
    outer loop
      vertex   1.183711e+000 9.213191e-001 1.500000e+000
      vertex   1.183711e+000 9.213191e-001 -1.500000e+000
      vertex   1.277879e+000 7.855094e-001 1.500000e+000
    endloop
  endfacet
  facet normal -8.794738e-001 -4.759474e-001 -0.000000e+000
    outer loop
      vertex   1.277879e+000 7.855094e-001 1.500000e+000
      vertex   1.277879e+000 7.855094e-001 -1.500000e+000
      vertex   1.356536e+000 6.401647e-001 1.500000e+000
    endloop
  endfacet
  facet normal -9.264941e-001 -3.763094e-001 -0.000000e+000
    outer loop
      vertex   1.356536e+000 6.401647e-001 1.500000e+000
      vertex   1.356536e+000 6.401647e-001 -1.500000e+000
      vertex   1.418726e+000 4.870492e-001 1.500000e+000
    endloop
  endfacet
  facet normal -9.622680e-001 -2.721035e-001 -0.000000e+000
    outer loop
      vertex   1.418726e+000 4.870492e-001 1.500000e+000
      vertex   1.418726e+000 4.870492e-001 -1.500000e+000
      vertex   1.463695e+000 3.280216e-001 1.500000e+000
    endloop
  endfacet
  facet normal -9.863613e-001 -1.645946e-001 -0.000000e+000
    outer loop
      vertex   1.463695e+000 3.280216e-001 1.500000e+000
      vertex   1.463695e+000 3.280216e-001 -1.500000e+000
      vertex   1.490896e+000 1.650123e-001 1.500000e+000
    endloop
  endfacet
  facet normal -9.984815e-001 -5.508776e-002 -0.000000e+000
    outer loop
      vertex   1.490896e+000 1.650123e-001 1.500000e+000
      vertex   1.490896e+000 1.650123e-001 -1.500000e+000
      vertex   1.500000e+000 1.836970e-016 1.500000e+000
    endloop
  endfacet
  facet normal -1.000000e+000 0.000000e+000 -0.000000e+000
    outer loop
      vertex   -5.000000e+000 -3.000000e+000 1.500000e+000
      vertex   -5.000000e+000 3.000000e+000 1.500000e+000
      vertex   -5.000000e+000 -3.000000e+000 -1.500000e+000
    endloop
  endfacet
  facet normal -1.000000e+000 0.000000e+000 0.000000e+000
    outer loop
      vertex   -5.000000e+000 -3.000000e+000 -1.500000e+000
      vertex   -5.000000e+000 3.000000e+000 1.500000e+000
      vertex   -5.000000e+000 3.000000e+000 -1.500000e+000
    endloop
  endfacet
  facet normal 0.000000e+000 -0.000000e+000 1.000000e+000
    outer loop
      vertex   -3.000000e+000 -5.000000e+000 1.500000e+000
      vertex   -1.015922e+000 -1.103586e+000 1.500000e+000
      vertex   -5.000000e+000 -3.000000e+000 1.500000e+000
    endloop
  endfacet
  facet normal 0.000000e+000 -0.000000e+000 1.000000e+000
    outer loop
      vertex   -3.000000e+000 -5.000000e+000 1.500000e+000
      vertex   -8.883529e-001 -1.208648e+000 1.500000e+000
      vertex   -1.015922e+000 -1.103586e+000 1.500000e+000
    endloop
  endfacet
  facet normal 0.000000e+000 -0.000000e+000 1.000000e+000
    outer loop
      vertex   -3.000000e+000 -5.000000e+000 1.500000e+000
      vertex   -7.500000e-001 -1.299038e+000 1.500000e+000
      vertex   -8.883529e-001 -1.208648e+000 1.500000e+000
    endloop
  endfacet
  facet normal 0.000000e+000 -0.000000e+000 1.000000e+000
    outer loop
      vertex   -3.000000e+000 -5.000000e+000 1.500000e+000
      vertex   -6.025431e-001 -1.373660e+000 1.500000e+000
      vertex   -7.500000e-001 -1.299038e+000 1.500000e+000
    endloop
  endfacet
  facet normal 0.000000e+000 -0.000000e+000 1.000000e+000
    outer loop
      vertex   -3.000000e+000 -5.000000e+000 1.500000e+000
      vertex   -4.477722e-001 -1.431608e+000 1.500000e+000
      vertex   -6.025431e-001 -1.373660e+000 1.500000e+000
    endloop
  endfacet
  facet normal 0.000000e+000 -0.000000e+000 1.000000e+000
    outer loop
      vertex   -3.000000e+000 -5.000000e+000 1.500000e+000
      vertex   -2.875659e-001 -1.472177e+000 1.500000e+000
      vertex   -4.477722e-001 -1.431608e+000 1.500000e+000
    endloop
  endfacet
  facet normal 0.000000e+000 -0.000000e+000 1.000000e+000
    outer loop
      vertex   -3.000000e+000 -5.000000e+000 1.500000e+000
      vertex   -1.238690e-001 -1.494877e+000 1.500000e+000
      vertex   -2.875659e-001 -1.472177e+000 1.500000e+000
    endloop
  endfacet
  facet normal 0.000000e+000 -0.000000e+000 1.000000e+000
    outer loop
      vertex   -3.000000e+000 -5.000000e+000 1.500000e+000
      vertex   4.133151e-002 -1.499430e+000 1.500000e+000
      vertex   -1.238690e-001 -1.494877e+000 1.500000e+000
    endloop
  endfacet
  facet normal -0.000000e+000 -0.000000e+000 1.000000e+000
    outer loop
      vertex   -3.000000e+000 -5.000000e+000 1.500000e+000
      vertex   3.000000e+000 -5.000000e+000 1.500000e+000
      vertex   4.133151e-002 -1.499430e+000 1.500000e+000
    endloop
  endfacet
  facet normal -0.000000e+000 -0.000000e+000 1.000000e+000
    outer loop
      vertex   4.133151e-002 -1.499430e+000 1.500000e+000
      vertex   3.000000e+000 -5.000000e+000 1.500000e+000
      vertex   2.060303e-001 -1.485783e+000 1.500000e+000
    endloop
  endfacet
  facet normal -0.000000e+000 -0.000000e+000 1.000000e+000
    outer loop
      vertex   2.060303e-001 -1.485783e+000 1.500000e+000
      vertex   3.000000e+000 -5.000000e+000 1.500000e+000
      vertex   3.682282e-001 -1.454100e+000 1.500000e+000
    endloop
  endfacet
  facet normal -0.000000e+000 -0.000000e+000 1.000000e+000
    outer loop
      vertex   3.682282e-001 -1.454100e+000 1.500000e+000
      vertex   3.000000e+000 -5.000000e+000 1.500000e+000
      vertex   5.259563e-001 -1.404767e+000 1.500000e+000
    endloop
  endfacet
  facet normal -0.000000e+000 -0.000000e+000 1.000000e+000
    outer loop
      vertex   5.259563e-001 -1.404767e+000 1.500000e+000
      vertex   3.000000e+000 -5.000000e+000 1.500000e+000
      vertex   6.773000e-001 -1.338381e+000 1.500000e+000
    endloop
  endfacet
  facet normal -0.000000e+000 -0.000000e+000 1.000000e+000
    outer loop
      vertex   6.773000e-001 -1.338381e+000 1.500000e+000
      vertex   3.000000e+000 -5.000000e+000 1.500000e+000
      vertex   8.204222e-001 -1.255750e+000 1.500000e+000
    endloop
  endfacet
  facet normal -0.000000e+000 -0.000000e+000 1.000000e+000
    outer loop
      vertex   8.204222e-001 -1.255750e+000 1.500000e+000
      vertex   3.000000e+000 -5.000000e+000 1.500000e+000
      vertex   9.535856e-001 -1.157875e+000 1.500000e+000
    endloop
  endfacet
  facet normal -0.000000e+000 -0.000000e+000 1.000000e+000
    outer loop
      vertex   9.535856e-001 -1.157875e+000 1.500000e+000
      vertex   3.000000e+000 -5.000000e+000 1.500000e+000
      vertex   1.075174e+000 -1.045945e+000 1.500000e+000
    endloop
  endfacet
  facet normal -0.000000e+000 0.000000e+000 1.000000e+000
    outer loop
      vertex   1.075174e+000 -1.045945e+000 1.500000e+000
      vertex   3.000000e+000 -5.000000e+000 1.500000e+000
      vertex   5.000000e+000 -3.000000e+000 1.500000e+000
    endloop
  endfacet
  facet normal -0.000000e+000 -0.000000e+000 1.000000e+000
    outer loop
      vertex   1.183711e+000 -9.213191e-001 1.500000e+000
      vertex   5.000000e+000 -3.000000e+000 1.500000e+000
      vertex   1.277879e+000 -7.855094e-001 1.500000e+000
    endloop
  endfacet
  facet normal 0.000000e+000 0.000000e+000 1.000000e+000
    outer loop
      vertex   1.183711e+000 -9.213191e-001 1.500000e+000
      vertex   1.075174e+000 -1.045945e+000 1.500000e+000
      vertex   5.000000e+000 -3.000000e+000 1.500000e+000
    endloop
  endfacet
  facet normal 0.000000e+000 0.000000e+000 1.000000e+000
    outer loop
      vertex   5.000000e+000 3.000000e+000 1.500000e+000
      vertex   1.500000e+000 1.836970e-016 1.500000e+000
      vertex   5.000000e+000 -3.000000e+000 1.500000e+000
    endloop
  endfacet
  facet normal 0.000000e+000 0.000000e+000 1.000000e+000
    outer loop
      vertex   5.000000e+000 3.000000e+000 1.500000e+000
      vertex   1.490896e+000 1.650123e-001 1.500000e+000
      vertex   1.500000e+000 1.836970e-016 1.500000e+000
    endloop
  endfacet
  facet normal 0.000000e+000 0.000000e+000 1.000000e+000
    outer loop
      vertex   5.000000e+000 3.000000e+000 1.500000e+000
      vertex   1.463695e+000 3.280216e-001 1.500000e+000
      vertex   1.490896e+000 1.650123e-001 1.500000e+000
    endloop
  endfacet
  facet normal 0.000000e+000 0.000000e+000 1.000000e+000
    outer loop
      vertex   5.000000e+000 3.000000e+000 1.500000e+000
      vertex   1.418726e+000 4.870492e-001 1.500000e+000
      vertex   1.463695e+000 3.280216e-001 1.500000e+000
    endloop
  endfacet
  facet normal 0.000000e+000 0.000000e+000 1.000000e+000
    outer loop
      vertex   5.000000e+000 3.000000e+000 1.500000e+000
      vertex   1.356536e+000 6.401647e-001 1.500000e+000
      vertex   1.418726e+000 4.870492e-001 1.500000e+000
    endloop
  endfacet
  facet normal 0.000000e+000 0.000000e+000 1.000000e+000
    outer loop
      vertex   5.000000e+000 3.000000e+000 1.500000e+000
      vertex   1.277879e+000 7.855094e-001 1.500000e+000
      vertex   1.356536e+000 6.401647e-001 1.500000e+000
    endloop
  endfacet
  facet normal 0.000000e+000 0.000000e+000 1.000000e+000
    outer loop
      vertex   5.000000e+000 3.000000e+000 1.500000e+000
      vertex   1.183711e+000 9.213191e-001 1.500000e+000
      vertex   1.277879e+000 7.855094e-001 1.500000e+000
    endloop
  endfacet
  facet normal 0.000000e+000 0.000000e+000 1.000000e+000
    outer loop
      vertex   5.000000e+000 3.000000e+000 1.500000e+000
      vertex   1.075174e+000 1.045945e+000 1.500000e+000
      vertex   1.183711e+000 9.213191e-001 1.500000e+000
    endloop
  endfacet
  facet normal 0.000000e+000 0.000000e+000 1.000000e+000
    outer loop
      vertex   5.000000e+000 3.000000e+000 1.500000e+000
      vertex   3.000000e+000 5.000000e+000 1.500000e+000
      vertex   1.075174e+000 1.045945e+000 1.500000e+000
    endloop
  endfacet
  facet normal 0.000000e+000 -0.000000e+000 1.000000e+000
    outer loop
      vertex   1.075174e+000 1.045945e+000 1.500000e+000
      vertex   3.000000e+000 5.000000e+000 1.500000e+000
      vertex   9.535856e-001 1.157875e+000 1.500000e+000
    endloop
  endfacet
  facet normal 0.000000e+000 -0.000000e+000 1.000000e+000
    outer loop
      vertex   9.535856e-001 1.157875e+000 1.500000e+000
      vertex   3.000000e+000 5.000000e+000 1.500000e+000
      vertex   8.204222e-001 1.255750e+000 1.500000e+000
    endloop
  endfacet
  facet normal 0.000000e+000 -0.000000e+000 1.000000e+000
    outer loop
      vertex   8.204222e-001 1.255750e+000 1.500000e+000
      vertex   3.000000e+000 5.000000e+000 1.500000e+000
      vertex   6.773000e-001 1.338381e+000 1.500000e+000
    endloop
  endfacet
  facet normal 0.000000e+000 -0.000000e+000 1.000000e+000
    outer loop
      vertex   6.773000e-001 1.338381e+000 1.500000e+000
      vertex   3.000000e+000 5.000000e+000 1.500000e+000
      vertex   5.259563e-001 1.404767e+000 1.500000e+000
    endloop
  endfacet
  facet normal 0.000000e+000 -0.000000e+000 1.000000e+000
    outer loop
      vertex   5.259563e-001 1.404767e+000 1.500000e+000
      vertex   3.000000e+000 5.000000e+000 1.500000e+000
      vertex   3.682282e-001 1.454100e+000 1.500000e+000
    endloop
  endfacet
  facet normal 0.000000e+000 -0.000000e+000 1.000000e+000
    outer loop
      vertex   3.682282e-001 1.454100e+000 1.500000e+000
      vertex   3.000000e+000 5.000000e+000 1.500000e+000
      vertex   2.060303e-001 1.485783e+000 1.500000e+000
    endloop
  endfacet
  facet normal 0.000000e+000 -0.000000e+000 1.000000e+000
    outer loop
      vertex   2.060303e-001 1.485783e+000 1.500000e+000
      vertex   3.000000e+000 5.000000e+000 1.500000e+000
      vertex   4.133151e-002 1.499430e+000 1.500000e+000
    endloop
  endfacet
  facet normal 0.000000e+000 -0.000000e+000 1.000000e+000
    outer loop
      vertex   4.133151e-002 1.499430e+000 1.500000e+000
      vertex   3.000000e+000 5.000000e+000 1.500000e+000
      vertex   -3.000000e+000 5.000000e+000 1.500000e+000
    endloop
  endfacet
  facet normal 0.000000e+000 0.000000e+000 1.000000e+000
    outer loop
      vertex   -1.238690e-001 1.494877e+000 1.500000e+000
      vertex   -3.000000e+000 5.000000e+000 1.500000e+000
      vertex   -2.875659e-001 1.472177e+000 1.500000e+000
    endloop
  endfacet
  facet normal 0.000000e+000 -0.000000e+000 1.000000e+000
    outer loop
      vertex   -1.238690e-001 1.494877e+000 1.500000e+000
      vertex   4.133151e-002 1.499430e+000 1.500000e+000
      vertex   -3.000000e+000 5.000000e+000 1.500000e+000
    endloop
  endfacet
  facet normal -0.000000e+000 -0.000000e+000 1.000000e+000
    outer loop
      vertex   -5.000000e+000 3.000000e+000 1.500000e+000
      vertex   -1.015922e+000 1.103586e+000 1.500000e+000
      vertex   -3.000000e+000 5.000000e+000 1.500000e+000
    endloop
  endfacet
  facet normal -0.000000e+000 0.000000e+000 1.000000e+000
    outer loop
      vertex   -5.000000e+000 3.000000e+000 1.500000e+000
      vertex   -1.131160e+000 9.851280e-001 1.500000e+000
      vertex   -1.015922e+000 1.103586e+000 1.500000e+000
    endloop
  endfacet
  facet normal -0.000000e+000 0.000000e+000 1.000000e+000
    outer loop
      vertex   -5.000000e+000 3.000000e+000 1.500000e+000
      vertex   -1.232667e+000 8.547121e-001 1.500000e+000
      vertex   -1.131160e+000 9.851280e-001 1.500000e+000
    endloop
  endfacet
  facet normal -0.000000e+000 0.000000e+000 1.000000e+000
    outer loop
      vertex   -5.000000e+000 3.000000e+000 1.500000e+000
      vertex   -1.319211e+000 7.139211e-001 1.500000e+000
      vertex   -1.232667e+000 8.547121e-001 1.500000e+000
    endloop
  endfacet
  facet normal -0.000000e+000 0.000000e+000 1.000000e+000
    outer loop
      vertex   -5.000000e+000 3.000000e+000 1.500000e+000
      vertex   -1.389741e+000 5.644641e-001 1.500000e+000
      vertex   -1.319211e+000 7.139211e-001 1.500000e+000
    endloop
  endfacet
  facet normal -0.000000e+000 0.000000e+000 1.000000e+000
    outer loop
      vertex   -5.000000e+000 3.000000e+000 1.500000e+000
      vertex   -1.443402e+000 4.081552e-001 1.500000e+000
      vertex   -1.389741e+000 5.644641e-001 1.500000e+000
    endloop
  endfacet
  facet normal -0.000000e+000 0.000000e+000 1.000000e+000
    outer loop
      vertex   -5.000000e+000 3.000000e+000 1.500000e+000
      vertex   -1.479542e+000 2.468919e-001 1.500000e+000
      vertex   -1.443402e+000 4.081552e-001 1.500000e+000
    endloop
  endfacet
  facet normal -0.000000e+000 0.000000e+000 1.000000e+000
    outer loop
      vertex   -5.000000e+000 3.000000e+000 1.500000e+000
      vertex   -1.497722e+000 8.263164e-002 1.500000e+000
      vertex   -1.479542e+000 2.468919e-001 1.500000e+000
    endloop
  endfacet
  facet normal -0.000000e+000 0.000000e+000 1.000000e+000
    outer loop
      vertex   -5.000000e+000 3.000000e+000 1.500000e+000
      vertex   -5.000000e+000 -3.000000e+000 1.500000e+000
      vertex   -1.497722e+000 8.263164e-002 1.500000e+000
    endloop
  endfacet
  facet normal -0.000000e+000 0.000000e+000 1.000000e+000
    outer loop
      vertex   -1.497722e+000 8.263164e-002 1.500000e+000
      vertex   -5.000000e+000 -3.000000e+000 1.500000e+000
      vertex   -1.497722e+000 -8.263164e-002 1.500000e+000
    endloop
  endfacet
  facet normal -0.000000e+000 0.000000e+000 1.000000e+000
    outer loop
      vertex   -1.497722e+000 -8.263164e-002 1.500000e+000
      vertex   -5.000000e+000 -3.000000e+000 1.500000e+000
      vertex   -1.479542e+000 -2.468919e-001 1.500000e+000
    endloop
  endfacet
  facet normal -0.000000e+000 0.000000e+000 1.000000e+000
    outer loop
      vertex   -1.479542e+000 -2.468919e-001 1.500000e+000
      vertex   -5.000000e+000 -3.000000e+000 1.500000e+000
      vertex   -1.443402e+000 -4.081552e-001 1.500000e+000
    endloop
  endfacet
  facet normal -0.000000e+000 0.000000e+000 1.000000e+000
    outer loop
      vertex   -1.443402e+000 -4.081552e-001 1.500000e+000
      vertex   -5.000000e+000 -3.000000e+000 1.500000e+000
      vertex   -1.389741e+000 -5.644641e-001 1.500000e+000
    endloop
  endfacet
  facet normal -0.000000e+000 0.000000e+000 1.000000e+000
    outer loop
      vertex   -1.389741e+000 -5.644641e-001 1.500000e+000
      vertex   -5.000000e+000 -3.000000e+000 1.500000e+000
      vertex   -1.319211e+000 -7.139211e-001 1.500000e+000
    endloop
  endfacet
  facet normal -0.000000e+000 0.000000e+000 1.000000e+000
    outer loop
      vertex   -1.319211e+000 -7.139211e-001 1.500000e+000
      vertex   -5.000000e+000 -3.000000e+000 1.500000e+000
      vertex   -1.232667e+000 -8.547121e-001 1.500000e+000
    endloop
  endfacet
  facet normal -0.000000e+000 0.000000e+000 1.000000e+000
    outer loop
      vertex   -1.232667e+000 -8.547121e-001 1.500000e+000
      vertex   -5.000000e+000 -3.000000e+000 1.500000e+000
      vertex   -1.131160e+000 -9.851280e-001 1.500000e+000
    endloop
  endfacet
  facet normal -0.000000e+000 0.000000e+000 1.000000e+000
    outer loop
      vertex   -1.131160e+000 -9.851280e-001 1.500000e+000
      vertex   -5.000000e+000 -3.000000e+000 1.500000e+000
      vertex   -1.015922e+000 -1.103586e+000 1.500000e+000
    endloop
  endfacet
  facet normal 0.000000e+000 0.000000e+000 1.000000e+000
    outer loop
      vertex   1.500000e+000 1.836970e-016 1.500000e+000
      vertex   1.490896e+000 -1.650123e-001 1.500000e+000
      vertex   5.000000e+000 -3.000000e+000 1.500000e+000
    endloop
  endfacet
  facet normal 0.000000e+000 0.000000e+000 1.000000e+000
    outer loop
      vertex   5.000000e+000 -3.000000e+000 1.500000e+000
      vertex   1.490896e+000 -1.650123e-001 1.500000e+000
      vertex   1.463695e+000 -3.280216e-001 1.500000e+000
    endloop
  endfacet
  facet normal -0.000000e+000 -0.000000e+000 1.000000e+000
    outer loop
      vertex   1.418726e+000 -4.870492e-001 1.500000e+000
      vertex   5.000000e+000 -3.000000e+000 1.500000e+000
      vertex   1.463695e+000 -3.280216e-001 1.500000e+000
    endloop
  endfacet
  facet normal 0.000000e+000 0.000000e+000 1.000000e+000
    outer loop
      vertex   1.418726e+000 -4.870492e-001 1.500000e+000
      vertex   1.356536e+000 -6.401647e-001 1.500000e+000
      vertex   5.000000e+000 -3.000000e+000 1.500000e+000
    endloop
  endfacet
  facet normal 0.000000e+000 0.000000e+000 1.000000e+000
    outer loop
      vertex   5.000000e+000 -3.000000e+000 1.500000e+000
      vertex   1.356536e+000 -6.401647e-001 1.500000e+000
      vertex   1.277879e+000 -7.855094e-001 1.500000e+000
    endloop
  endfacet
  facet normal 0.000000e+000 -0.000000e+000 1.000000e+000
    outer loop
      vertex   -1.015922e+000 1.103586e+000 1.500000e+000
      vertex   -8.883529e-001 1.208648e+000 1.500000e+000
      vertex   -3.000000e+000 5.000000e+000 1.500000e+000
    endloop
  endfacet
  facet normal -0.000000e+000 0.000000e+000 1.000000e+000
    outer loop
      vertex   -3.000000e+000 5.000000e+000 1.500000e+000
      vertex   -8.883529e-001 1.208648e+000 1.500000e+000
      vertex   -7.500000e-001 1.299038e+000 1.500000e+000
    endloop
  endfacet
  facet normal 0.000000e+000 0.000000e+000 1.000000e+000
    outer loop
      vertex   -6.025431e-001 1.373660e+000 1.500000e+000
      vertex   -3.000000e+000 5.000000e+000 1.500000e+000
      vertex   -7.500000e-001 1.299038e+000 1.500000e+000
    endloop
  endfacet
  facet normal 0.000000e+000 -0.000000e+000 1.000000e+000
    outer loop
      vertex   -6.025431e-001 1.373660e+000 1.500000e+000
      vertex   -4.477722e-001 1.431608e+000 1.500000e+000
      vertex   -3.000000e+000 5.000000e+000 1.500000e+000
    endloop
  endfacet
  facet normal -0.000000e+000 0.000000e+000 1.000000e+000
    outer loop
      vertex   -3.000000e+000 5.000000e+000 1.500000e+000
      vertex   -4.477722e-001 1.431608e+000 1.500000e+000
      vertex   -2.875659e-001 1.472177e+000 1.500000e+000
    endloop
  endfacet
endsolid
